<svg width="48" height="48" viewBox="0 0 48 48" fill="none" xmlns="http://www.w3.org/2000/svg">
<style>
  .logo-mark { fill: #2C1F14; }
  @media (prefers-color-scheme: dark) {
    .logo-mark { fill: #FAF7F2; }
  }
</style>
<path class="logo-mark" d="M24 0C28.6947 0 33.0734 1.34971 36.7725 3.67969C36.5567 3.67314 36.3419 3.66992 36.1279 3.66992C33.3161 3.66992 31.0361 4.14481 29.2881 5.09473C27.5781 6.0447 26.3244 7.31812 25.5264 8.91406C24.7664 10.5101 24.3857 12.2965 24.3857 14.2725C24.3858 16.8562 25.0696 19.0413 26.4375 20.8271C27.8055 22.5751 29.9343 23.8858 32.8223 24.7598L37.4385 26.1279C39.4524 26.7359 40.8965 27.6101 41.7705 28.75C42.6825 29.8899 43.1386 31.2959 43.1387 32.9678C43.1387 34.9817 42.4931 36.521 41.2012 37.585C39.9092 38.611 38.0659 39.124 35.6719 39.124C34.0379 39.124 32.4035 38.9337 30.7695 38.5537C29.1736 38.1737 27.3683 37.5281 25.3545 36.6162L23.8164 40.834C25.9442 41.7839 27.9958 42.4874 29.9717 42.9434C31.9857 43.3614 33.8859 43.5703 35.6719 43.5703C36.508 43.5703 37.3003 43.5317 38.0488 43.458C34.0993 46.3146 29.2469 48 24 48C18.2531 48 12.9788 45.979 8.84668 42.6104C9.61536 42.3748 10.306 42.0874 10.918 41.7461C12.932 40.6441 14.3377 39.1049 15.1357 37.1289C15.9717 35.115 16.3896 32.8162 16.3896 30.2324V1.23242C18.781 0.433427 21.3399 0 24 0ZM11.4307 30.2324C11.4306 33.3482 10.7086 35.5332 9.26465 36.7871C8.24606 37.6954 6.78855 38.2722 4.89258 38.5225C1.8233 34.4904 0 29.4584 0 24C0 15.3539 4.57245 7.77643 11.4307 3.55176V30.2324ZM36.2422 8.17285C37.5721 8.17288 38.9594 8.36319 40.4033 8.74316C41.2724 8.94374 42.1999 9.22368 43.1865 9.58105C46.2083 13.5955 48 18.5884 48 24C48 25.5568 47.8495 27.0785 47.5664 28.5527C46.4548 25.124 43.7648 22.776 39.4912 21.5107L34.874 20.1426C32.8221 19.4966 31.3966 18.6803 30.5986 17.6924C29.8006 16.6664 29.4023 15.4117 29.4023 13.9297C29.4024 11.8779 29.991 10.415 31.1689 9.54102C32.3849 8.62902 34.0762 8.17285 36.2422 8.17285Z"/>
</svg>
