<svg width="236" height="41" viewBox="0 0 236 41" fill="none" xmlns="http://www.w3.org/2000/svg">
<path d="M2 38.3833V34.2333C4.7 34.2333 6.66667 33.6833 7.9 32.5833C9.16667 31.4833 9.8 29.5667 9.8 26.8333V4.03334H14.15V26.8333C14.15 29.1 13.7833 31.1167 13.05 32.8833C12.35 34.6167 11.1167 35.9667 9.35 36.9333C7.61667 37.9 5.16667 38.3833 2 38.3833Z" fill="#2C1F14"/>
<path d="M86.8688 38.0333V22.8833H72.0188V38.0333H67.6687V4.03334H72.0188V18.7833H86.8688V4.03334H91.2188V38.0333H86.8688Z" fill="#2C1F14"/>
<path d="M101.8 38.0333V4.03334H106.35C109.383 8.36668 112.166 12.7333 114.7 17.1333C117.266 21.5 119.666 26.0667 121.9 30.8333L121.4 17.8333V4.03334H125.65V38.0333H121.1C118.766 33.1667 116.35 28.4333 113.85 23.8333C111.383 19.2 108.683 14.6833 105.75 10.2833L106.05 24.1333V38.0333H101.8Z" fill="#2C1F14"/>
<path d="M154.16 34.6333C156.26 34.6333 157.876 34.1833 159.01 33.2833C160.143 32.35 160.71 31 160.71 29.2333C160.71 27.7667 160.31 26.5333 159.51 25.5333C158.743 24.5333 157.476 23.7667 155.71 23.2333L151.66 22.0333C149.126 21.2667 147.26 20.1167 146.06 18.5833C144.86 17.0167 144.26 15.1 144.26 12.8333C144.26 11.1 144.593 9.53334 145.26 8.13334C145.96 6.73334 147.06 5.61667 148.56 4.78334C150.093 3.95001 152.093 3.53334 154.56 3.53334C156.06 3.53334 157.61 3.71667 159.21 4.08334C160.81 4.41668 162.426 4.96668 164.06 5.73334L162.66 9.48334C161.06 8.78334 159.61 8.28334 158.31 7.98334C157.043 7.65001 155.826 7.48334 154.66 7.48334C152.76 7.48334 151.276 7.88334 150.21 8.68334C149.176 9.45001 148.66 10.7333 148.66 12.5333C148.66 13.8333 149.01 14.9333 149.71 15.8333C150.41 16.7 151.66 17.4167 153.46 17.9833L157.51 19.1833C162.576 20.6833 165.11 23.9167 165.11 28.8833C165.11 31.75 164.243 34.0833 162.51 35.8833C160.776 37.65 157.993 38.5333 154.16 38.5333C152.593 38.5333 150.926 38.35 149.16 37.9833C147.426 37.5833 145.626 36.9667 143.76 36.1333L145.11 32.4333C146.876 33.2333 148.46 33.8 149.86 34.1333C151.293 34.4667 152.726 34.6333 154.16 34.6333Z" fill="#2C1F14"/>
<path d="M191.503 33.9833V38.0333H172.503V4.03334H191.003V8.13334H176.853V18.7833H189.503V22.8833H176.853V33.9833H191.503Z" fill="#2C1F14"/>
<circle cx="216.15" cy="20.6667" r="17.5" fill="#2C1F14"/>
<path d="M219.825 26.141V32.1987C219.825 33.1627 219.438 34.0872 218.749 34.7688C218.059 35.4504 217.125 35.8333 216.15 35.8333C215.175 35.8333 214.24 35.4504 213.551 34.7688C212.862 34.0872 212.475 33.1627 212.475 32.1987V26.141H208.8C207.5 26.141 206.254 25.6304 205.335 24.7216C204.416 23.8128 203.9 22.5802 203.9 21.2949H228.4C228.4 22.5802 227.884 23.8128 226.965 24.7216C226.046 25.6304 224.799 26.141 223.5 26.141H219.825ZM203.9 18.8718V2H228.4V18.8718H203.9Z" fill="#FAF7F2"/>
<mask id="mask0_101_183" style="mask-type:alpha" maskUnits="userSpaceOnUse" x="198" y="3" width="36" height="36">
<circle cx="216.15" cy="20.6667" r="17.5" fill="#2C1F14"/>
</mask>
<g mask="url(#mask0_101_183)">
<path d="M216.15 2.7C216.15 2.3134 216.463 2 216.85 2H218.95C219.337 2 219.65 2.3134 219.65 2.7V12.9667C219.65 13.3533 219.337 13.6667 218.95 13.6667H216.85C216.463 13.6667 216.15 13.3533 216.15 12.9667V2.7Z" fill="#B85C38"/>
<path d="M221.983 3.86667C221.983 3.48007 222.296 3.16667 222.683 3.16667H224.783C225.17 3.16667 225.483 3.48007 225.483 3.86667V15.3C225.483 15.6866 225.17 16 224.783 16H222.683C222.296 16 221.983 15.6866 221.983 15.3V3.86667Z" fill="#B85C38"/>
</g>
<path d="M47.6768 4.61055C53.9458 7.34866 58.3271 13.6028 58.3271 20.8811C58.3271 30.6826 50.3816 38.6281 40.5801 38.6281C38.853 38.6281 37.184 38.3802 35.6055 37.9201L47.5869 5.18379C47.654 5.00021 47.6834 4.80564 47.6768 4.61055ZM40.5801 3.13399C42.0933 3.13399 43.5625 3.32351 44.9648 3.67989C44.849 3.81689 44.7569 3.97229 44.6953 4.14082L32.7412 36.8059C26.8716 33.911 22.833 27.8683 22.833 20.8811C22.8331 11.0797 30.7787 3.13408 40.5801 3.13399Z" fill="#2C1F14"/>
<path d="M49.8384 14.2823L56.437 20.881L49.8374 27.4806H31.3228L24.7231 20.881L31.3218 14.2823H49.8384Z" fill="#B85C38" stroke="#B85C38"/>
<path d="M32.4968 14.655L25.2877 20.7042L32.4968 26.7533C32.6442 26.8721 32.7666 27.0193 32.8568 27.1863C32.947 27.3533 33.0032 27.5368 33.0221 27.7259C33.0411 27.915 33.0224 28.1061 32.9671 28.2879C32.9119 28.4696 32.8212 28.6385 32.7003 28.7845C32.5794 28.9306 32.4309 29.0509 32.2633 29.1384C32.0957 29.226 31.9125 29.279 31.7243 29.2943C31.5361 29.3097 31.3468 29.2871 31.1674 29.2279C30.988 29.1687 30.8221 29.0741 30.6795 28.9496L22.1606 21.8014C22.0008 21.6672 21.8722 21.4993 21.7839 21.3096C21.6956 21.1198 21.6499 20.9128 21.6499 20.7033C21.6499 20.4937 21.6956 20.2867 21.7839 20.097C21.8722 19.9072 22.0008 19.7393 22.1606 19.6051L30.6795 12.457C30.9689 12.2143 31.3423 12.0974 31.7174 12.1319C32.0925 12.1664 32.4386 12.3495 32.6796 12.641C32.9206 12.9325 33.0367 13.3084 33.0024 13.6861C32.9682 14.0638 32.7863 14.4124 32.4968 14.655Z" fill="#FAF7F2"/>
<path d="M48.803 26.7699L56.0121 20.7208L48.803 14.6716C48.6556 14.5528 48.5332 14.4056 48.443 14.2386C48.3528 14.0716 48.2966 13.8882 48.2777 13.699C48.2587 13.5099 48.2774 13.3189 48.3327 13.1371C48.3879 12.9553 48.4787 12.7865 48.5995 12.6404C48.7204 12.4944 48.8689 12.374 49.0365 12.2865C49.2041 12.199 49.3873 12.146 49.5755 12.1306C49.7637 12.1152 49.953 12.1378 50.1324 12.197C50.3118 12.2562 50.4777 12.3508 50.6204 12.4753L59.1392 19.6235C59.299 19.7577 59.4276 19.9256 59.5159 20.1154C59.6042 20.3051 59.6499 20.5121 59.6499 20.7217C59.6499 20.9312 59.6042 21.1382 59.5159 21.328C59.4276 21.5177 59.299 21.6856 59.1392 21.8198L50.6204 28.968C50.3309 29.2107 49.9575 29.3276 49.5824 29.2931C49.2073 29.2586 48.8612 29.0754 48.6202 28.7839C48.3792 28.4924 48.2631 28.1165 48.2974 27.7388C48.3316 27.3611 48.5135 27.0126 48.803 26.7699Z" fill="#FAF7F2"/>
<line x1="46.7824" y1="3.66729" x2="34.2706" y2="37.9686" stroke="#FAF7F2" stroke-width="3.7"/>
</svg>
